<?xml version="1.0" encoding="UTF-8"?>
<svg id="_레이어_1" data-name="레이어_1" xmlns="http://www.w3.org/2000/svg" version="1.1" viewBox="0 0 1651.7218317 241.3455338">
  <!-- Generator: Adobe Illustrator 30.3.0, SVG Export Plug-In . SVG Version: 2.1.3 Build 182)  -->
  <defs>
    <style>
      .st0 {
        fill: #87387c;
      }
    </style>
  </defs>
  <g>
    <path class="st0" d="M689.1070148,100.2876116c-13.2707053,1.1874883-23.906435,11.3030734-27.8953345,23.6977897l-17.2283831,66.8288964c.0495192,1.2839011-1.86611,5.0617699-3.5040506,5.0563173l-31.6048432-.10521,19.4462094-75.2734267c2.7181945-10.5217326-5.574113-20.4036729-15.8303731-20.381222l-24.6818543.0540286c-13.2605195.0290273-25.7034845,11.2500755-29.0889051,24.2180397l-18.5598666,71.0941742-33.8475176.0099711,18.3091559-70.9101905c3.2630991-12.6377744,8.4619168-23.2943414,17.2161411-32.9900446,12.5050166-13.849877,29.7484225-23.0896478,48.8411599-23.1676437l26.0765069-.1065253c13.7288804-.0560839,29.4497164,6.3714457,37.1493715,18.2694366,13.3494599-13.1462602,31.1300684-19.1428786,49.7614803-18.3474518l24.2462939,1.0351418c24.7802944,4.3851927,42.6309012,27.2400714,36.3503365,52.353612l-17.4991713,69.972395c-.5687384,2.274164-2.6047228,4.4706654-4.8350652,4.446787l-30.2611558-.3239811,19.6980896-75.2849614c2.6296958-10.0505454-5.2488783-20.2203183-15.2456939-20.2002254l-27.0125307.0542933Z"/>
    <path class="st0" d="M1041.2614489,164.9908209c1.4388785.0005226,3.1659771.2473808,3.7127703.7881846.5479438.5419418.7742937,2.6603529.5022909,3.6380694l-7.3485901,26.4145779-38.5013872-.0334554c-9.799276-.008515-20.0443498-4.270572-26.2124284-11.9775488-6.0153406-7.5161318-8.1787268-18.6516417-5.7304587-28.2855218l14.114418-55.5399181-33.5843546-.2921306,6.5127594-27.2055201c.3409144-1.4240898,2.472215-3.6828478,3.921836-3.6912354l30.6778849-.1775042,10.7313508-44.1661519,33.808147.3945564-10.6870942,43.6053874,49.3775966.435238-6.6779907,26.8896147c-.3957208,1.5934103-2.2373793,4.0934959-4.029845,4.0935438l-46.2261012.0012356-13.0689344,51.7268338c-.7273144,2.87871.0868346,7.3782654,1.8234983,9.4822267,1.4554002,1.7632116,5.3272451,3.8880561,8.0921597,3.8890603l28.7924724.0104579Z"/>
    <path class="st0" d="M810.1232892,196.5299075c-4.217262.0187356-7.3702722-1.698341-10.9488922-4.4287519l-11.7127341,46.1938902c-.3341068,1.3176849-3.3408755,3.0759161-4.6571819,3.0502092l-29.9435421-.5847832,31.1538399-121.7538694c4.0901874-15.9850647,12.53325-29.6596139,25.7264763-39.4207411,8.3260054-6.16007,18.276628-10.9987656,28.9142228-11.0016934l48.0642987-.0132286c13.4726597-.003708,26.4029618,5.9261912,35.0612283,15.7980036,11.4468089,13.0511979,12.8900548,30.056774,9.3510673,46.4351557-4.0901841,18.9293109-11.974589,35.7137587-26.8253873,48.4304136-12.2205518,10.4643897-27.0975164,16.9973598-43.5994267,17.0706711l-50.5839691.224724ZM895.9085042,138.0666634l3.8551091-15.5843714c2.6773698-10.8233318-5.9648987-22.1021979-17.6163925-22.2270317l-39.4277913-.4224283c-11.3472804,1.0646332-21.920278,8.4646233-24.893206,19.8669477l-11.7960132,45.2422554,56.7682114-.3259764c15.3500065-.0881433,28.4439878-12.6495239,33.1100825-26.5493954Z"/>
    <g>
      <path class="st0" d="M51.3295288,162.3987506l-5.3912756,27.4502011c-.7927419,4.0363222-3.9453372,6.6882546-8.1971101,6.6810213l-33.0424345-.0562131c-3.1701567-.0053932-5.2954844-2.4075004-4.5488423-5.6292535L35.8179501,36.9370688C40.3047948,17.5763774,54.3773409-.0225564,75.8355229.0000217l98.7733985.1039285c32.8839335.0346002,58.4536827,28.0759124,59.3978705,60.4655705.7137131,24.4833963-8.21127,47.8543583-24.5799865,65.6456877-15.2570736,16.583073-35.8830467,28.1903573-58.6717689,28.2952742l-89.928702.4140224c-3.2058363.0147593-8.8269957,4.0638433-9.4968056,7.4742456ZM115.2267598,117.9234682l37.4759622-.7210984c25.8232148-2.3054568,44.4318395-28.1186401,43.2368188-52.9639255-.6796985-14.1313892-11.7207745-26.8159249-26.1711799-26.8465905l-79.1283206-.1679209c-7.3038172-.0154997-16.2282327,4.6733469-18.0059568,12.1914611l-12.8399072,54.3008275c-1.6169679,6.8382656,2.6668668,13.4864884,9.9247025,13.6668337l14.8299478.3684998-4.8246909,24.0224999,35.5026241-23.8505867Z"/>
      <path class="st0" d="M280.9849067,119.2952723l-18.8058361,76.4797726-29.2971706.2435859c-1.0265903.0085354-3.4173618-.7786233-3.5818536-1.5225918-.1638335-.7409908-.0812313-1.9472215.2227288-3.1659286l20.7210158-83.0794771c5.5966045-22.4391982,24.5579137-37.8703022,47.3930355-39.8921818l65.0866302-.0424156,2.4593069,1.2526701c.6863852.3496165.3128561,2.7048519-.1373474,3.5631571l-13.9998383,26.6904476-50.1005837.3617906c-10.272609.0741814-17.5755024,9.413516-19.9600873,19.1111711Z"/>
      <path class="st0" d="M435.1735516,196.2577894l-35.4990397.0821645c-12.3042534.0284789-23.9482532-4.7110607-33.1999127-12.5527638-9.7486644-8.2629643-15.1698501-20.2371396-15.5579525-33.26994-1.2744576-42.7973344,30.8462727-82.5416353,73.7536706-82.1391081l35.9906119.3376388c17.9889949.1687602,33.8588475,11.3384308,41.5967462,27.1395028,11.7078708,23.9079.7907532,58.7456443-17.5774218,77.6824694-13.1239783,13.5302763-29.8097378,22.6744466-49.506702,22.7200363ZM437.2380291,164.5689631c19.7697733-1.571358,32.5071701-17.683306,35.858552-35.4990922,1.3641036-7.25151,2.0722096-13.4423072-2.388584-19.980769-3.0292937-4.4402235-9.3778664-8.9701722-16.268837-9.0433128l-28.796499-.3056454c-24.7783834-.2629972-39.8244885,19.3607487-41.1527001,43.8207062-.6036775,11.1171486,7.9642896,20.5577306,19.2940934,21.0650929,10.8980956.4880299,21.873515.8634684,33.4539749-.0569797Z"/>
    </g>
  </g>
  <g>
    <path class="st0" d="M1300.0436827,190.0898826c-.9276838,3.6767394-1.9665119,5.9622011-5.2287507,5.9033804l-32.3767375-.5837777,17.6150599-69.9212208-100.6808813-.15852-16.0408914,66.8437308c-.5963717,2.4851306-2.998292,3.8245559-5.4896094,3.903573l-32.5552156-.518502,15.6480823-62.7086997,26.3872973-107.6007804c.7109034-2.8988856,2.2881517-4.779561,5.3084755-4.7767332l28.1609552.0263663c.5998852.0005617,2.2852579.3662684,2.799056.6320271.6850214.3543229,1.0386904,2.3683697.8472593,3.1389501l-16.906649,68.0554611,100.5914719.0478973,17.1599128-69.2583987c.3164702-1.2772922,2.922995-2.6486006,4.2775505-2.7178007l33.1090117.7534962-42.6253973,168.9395509Z"/>
    <path class="st0" d="M1651.7218317,121.0949466c-1.8965647,41.1370838-35.0176443,75.3285099-72.9763677,75.2055112l-34.9215783-.1131574c-13.9967479-.0453541-27.2979027-6.7903179-36.2708498-17.5449801-8.8052841-10.5537072-12.4600347-25.4139375-8.9204171-39.2893945l30.2578313-118.6120314,34.1013426.1004023-13.0546068,51.5787256c5.1933986-2.601484,10.7468515-4.0570081,16.7500679-3.9761224l38.7097231.5215646c27.3660614,2.2276949,47.6160262,24.1235677,46.3248548,52.129482ZM1583.2463352,164.514628c18.9533933-1.6739432,31.3450173-17.5182845,34.7059469-34.6245976,1.4787351-7.5264015,1.9372623-14.0412808-2.9429421-20.9373325-2.9857808-4.2191059-9.6507049-8.8908376-16.7846862-8.9155116l-55.5386631-.1920892-10.9141415,40.723901c-3.1733067,11.8405492,5.6619991,24.1637931,17.9496826,24.1052781l33.5248034-.1596481Z"/>
    <path class="st0" d="M1461.0641005,195.6704928l-32.5170384.0433359,1.8965346-11.2521768c-12.6297711,9.064172-27.3300794,12.3892734-42.6983026,12.1523978-11.2352305-.1731724-21.8020948-1.0905406-31.6132823-6.4568966-20.320829-11.1147405-25.3133558-32.0206825-18.8069676-54.0319555l16.7481162-66.6140785,34.137448-.2951968-18.5657279,76.1082975c-2.3011779,9.4334427,5.669413,18.5953477,14.13361,18.9882842l17.1519554.7962515c17.0220079.7902189,35.989843-8.9841746,40.567544-26.5334318l18.0704186-69.2754771,30.3620861-.3603587c1.0907798-.0129461,3.1615766,2.3667523,2.8451589,3.5823104l-19.8209721,76.1447374-11.8905809,47.0039571Z"/>
  </g>
</svg>